JosefinSlab-LightItalic_ik.ufo
<glyph name="numbersign" format="1">
  <advance width="573"/>
  <unicode hex="0023"/>
  <outline>
    <contour>
      <point x="281" y="0" type="line"/>
      <point x="295" y="54"/>
      <point x="320" y="160"/>
      <point x="333" y="214" type="qcurve"/>
      <point x="184" y="214" type="line"/>
      <point x="171" y="160"/>
      <point x="147" y="54"/>
      <point x="133" y="0" type="qcurve"/>
      <point x="96" y="0" type="line"/>
      <point x="110" y="54"/>
      <point x="135" y="160"/>
      <point x="148" y="214" type="qcurve"/>
      <point x="38" y="214" type="line"/>
      <point x="47" y="250" type="line"/>
      <point x="157" y="250" type="line"/>
      <point x="192" y="397" type="line"/>
      <point x="84" y="397" type="line"/>
      <point x="86" y="406"/>
      <point x="90" y="424"/>
      <point x="92" y="433" type="qcurve"/>
      <point x="201" y="433" type="line"/>
      <point x="214" y="487"/>
      <point x="240" y="592"/>
      <point x="253" y="646" type="qcurve"/>
      <point x="290" y="646" type="line"/>
      <point x="237" y="433" type="line"/>
      <point x="386" y="433" type="line"/>
      <point x="438" y="646" type="line"/>
      <point x="474" y="646" type="line"/>
      <point x="461" y="592"/>
      <point x="436" y="487"/>
      <point x="422" y="433" type="qcurve"/>
      <point x="548" y="433" type="line"/>
      <point x="540" y="397" type="line"/>
      <point x="413" y="397" type="line"/>
      <point x="378" y="250" type="line"/>
      <point x="503" y="250" type="line"/>
      <point x="501" y="240"/>
      <point x="497" y="223"/>
      <point x="495" y="214" type="qcurve"/>
      <point x="369" y="214" type="line"/>
      <point x="318" y="0" type="line"/>
    </contour>
    <contour>
      <point x="229" y="397" type="line"/>
      <point x="219" y="360"/>
      <point x="203" y="287"/>
      <point x="193" y="250" type="qcurve"/>
      <point x="342" y="250" type="line"/>
      <point x="377" y="397" type="line"/>
    </contour>
  </outline>
</glyph>
<glyph name="percent" format="1">
  <advance width="648"/>
  <unicode hex="0025"/>
  <outline>
    <contour>
      <point x="389" y="104" type="qcurve"/>
      <point x="389" y="74"/>
      <point x="429" y="33"/>
      <point x="460" y="33" type="qcurve"/>
      <point x="478" y="33"/>
      <point x="511" y="47"/>
      <point x="535" y="70"/>
      <point x="550" y="102"/>
      <point x="550" y="120" type="qcurve"/>
      <point x="550" y="150"/>
      <point x="511" y="192"/>
      <point x="479" y="192" type="qcurve"/>
      <point x="461" y="192"/>
      <point x="429" y="178"/>
      <point x="404" y="154"/>
      <point x="389" y="122"/>
    </contour>
    <contour>
      <point x="455" y="-2" type="qcurve"/>
      <point x="411" y="-2"/>
      <point x="353" y="57"/>
      <point x="353" y="101" type="qcurve"/>
      <point x="353" y="127"/>
      <point x="375" y="173"/>
      <point x="411" y="207"/>
      <point x="458" y="227"/>
      <point x="484" y="227" type="qcurve"/>
      <point x="528" y="227"/>
      <point x="587" y="168"/>
      <point x="587" y="124" type="qcurve"/>
      <point x="587" y="98"/>
      <point x="565" y="52"/>
      <point x="528" y="18"/>
      <point x="480" y="-2"/>
    </contour>
    <contour>
      <point x="98" y="382" type="qcurve"/>
      <point x="98" y="352"/>
      <point x="138" y="311"/>
      <point x="169" y="311" type="qcurve"/>
      <point x="187" y="311"/>
      <point x="220" y="325"/>
      <point x="244" y="348"/>
      <point x="259" y="380"/>
      <point x="259" y="398" type="qcurve"/>
      <point x="259" y="428"/>
      <point x="219" y="469"/>
      <point x="188" y="469" type="qcurve"/>
      <point x="170" y="469"/>
      <point x="137" y="455"/>
      <point x="113" y="432"/>
      <point x="98" y="400"/>
    </contour>
    <contour>
      <point x="164" y="275" type="qcurve"/>
      <point x="120" y="275"/>
      <point x="62" y="335"/>
      <point x="62" y="379" type="qcurve"/>
      <point x="62" y="405"/>
      <point x="84" y="451"/>
      <point x="120" y="485"/>
      <point x="167" y="505"/>
      <point x="193" y="505" type="qcurve"/>
      <point x="237" y="505"/>
      <point x="296" y="445"/>
      <point x="296" y="401" type="qcurve"/>
      <point x="296" y="375"/>
      <point x="274" y="329"/>
      <point x="237" y="295"/>
      <point x="189" y="275"/>
    </contour>
    <contour>
      <point x="120" y="0" type="line"/>
      <point x="211" y="127"/>
      <point x="390" y="375"/>
      <point x="480" y="502" type="qcurve"/>
      <point x="521" y="502" type="line"/>
      <point x="430" y="375"/>
      <point x="251" y="127"/>
      <point x="160" y="0" type="qcurve"/>
    </contour>
  </outline>
</glyph>
<glyph name="hyphen" format="1">
  <advance width="321"/>
  <unicode hex="002D"/>
  <outline>
    <contour>
      <point x="57" y="181" type="line"/>
      <point x="61" y="216" type="line"/>
      <point x="246" y="216" type="line"/>
      <point x="242" y="181" type="line"/>
    </contour>
  </outline>
</glyph>
<glyph name="period" format="1">
  <advance width="197"/>
  <unicode hex="002E"/>
  <outline>
    <contour>
      <point x="40" y="27" type="qcurve"/>
      <point x="40" y="41"/>
      <point x="61" y="61"/>
      <point x="75" y="61" type="qcurve"/>
      <point x="86" y="61"/>
      <point x="101" y="45"/>
      <point x="101" y="33" type="qcurve"/>
      <point x="101" y="19"/>
      <point x="80" y="0"/>
      <point x="67" y="0" type="qcurve"/>
      <point x="56" y="0"/>
      <point x="40" y="15"/>
    </contour>
  </outline>
</glyph>
<glyph name="slash" format="1">
  <advance width="406"/>
  <unicode hex="002F"/>
  <outline>
    <contour>
      <point x="10" y="-19" type="line"/>
      <point x="383" y="739" type="line"/>
      <point x="419" y="739" type="line"/>
      <point x="46" y="-19" type="line"/>
    </contour>
  </outline>
</glyph>
<glyph name="three" format="1">
  <advance width="480"/>
  <unicode hex="0033"/>
  <outline>
    <contour>
      <point x="109" y="557" type="line"/>
      <point x="117" y="617" type="line"/>
      <point x="122" y="653" type="line"/>
      <point x="449" y="653" type="line"/>
      <point x="395" y="590"/>
      <point x="288" y="467"/>
      <point x="235" y="404" type="qcurve"/>
      <point x="273" y="402"/>
      <point x="337" y="374"/>
      <point x="384" y="326"/>
      <point x="411" y="260"/>
      <point x="411" y="222" type="qcurve"/>
      <point x="411" y="175"/>
      <point x="372" y="92"/>
      <point x="306" y="29"/>
      <point x="221" y="-8"/>
      <point x="175" y="-8" type="qcurve"/>
      <point x="128" y="-8"/>
      <point x="55" y="29"/>
      <point x="30" y="60" type="qcurve"/>
      <point x="37" y="67"/>
      <point x="52" y="80"/>
      <point x="60" y="87" type="qcurve"/>
      <point x="79" y="61"/>
      <point x="139" y="27"/>
      <point x="177" y="27" type="qcurve"/>
      <point x="215" y="27"/>
      <point x="287" y="58"/>
      <point x="342" y="110"/>
      <point x="375" y="179"/>
      <point x="375" y="217" type="qcurve"/>
      <point x="375" y="250"/>
      <point x="351" y="306"/>
      <point x="309" y="348"/>
      <point x="252" y="372"/>
      <point x="219" y="372" type="qcurve"/>
      <point x="186" y="372"/>
      <point x="154" y="351" type="qcurve"/>
      <point x="210" y="418"/>
      <point x="324" y="550"/>
      <point x="380" y="617" type="qcurve"/>
      <point x="152" y="617" type="line"/>
      <point x="145" y="557" type="line"/>
    </contour>
  </outline>
</glyph>
<glyph name="four" format="1">
  <advance width="535"/>
  <unicode hex="0034"/>
  <outline>
    <contour>
      <point x="446" y="35" type="line"/>
      <point x="442" y="0" type="line"/>
      <point x="241" y="0" type="line"/>
      <point x="244" y="35" type="line"/>
      <point x="325" y="35" type="line"/>
      <point x="343" y="179" type="line"/>
      <point x="6" y="179" type="line"/>
      <point x="112" y="299"/>
      <point x="331" y="541"/>
      <point x="438" y="661" type="qcurve"/>
      <point x="384" y="215" type="line"/>
      <point x="481" y="215" type="line"/>
      <point x="477" y="179" type="line"/>
      <point x="379" y="179" type="line"/>
      <point x="362" y="35" type="line"/>
    </contour>
    <contour>
      <point x="389" y="560" type="line"/>
      <point x="82" y="215" type="line"/>
      <point x="347" y="215" type="line"/>
    </contour>
  </outline>
</glyph>
<glyph name="five" format="1">
  <advance width="473"/>
  <unicode hex="0035"/>
  <outline>
    <contour>
      <point x="381" y="557" type="line"/>
      <point x="388" y="617" type="line"/>
      <point x="167" y="617" type="line"/>
      <point x="139" y="387" type="line"/>
      <point x="159" y="396"/>
      <point x="198" y="406"/>
      <point x="221" y="406" type="qcurve"/>
      <point x="262" y="406"/>
      <point x="330" y="377"/>
      <point x="380" y="328"/>
      <point x="407" y="261"/>
      <point x="407" y="222" type="qcurve"/>
      <point x="407" y="175"/>
      <point x="367" y="91"/>
      <point x="301" y="28"/>
      <point x="215" y="-8"/>
      <point x="169" y="-8" type="qcurve"/>
      <point x="127" y="-8"/>
      <point x="58" y="23"/>
      <point x="33" y="50" type="qcurve"/>
      <point x="41" y="56"/>
      <point x="55" y="68"/>
      <point x="63" y="75" type="qcurve"/>
      <point x="82" y="52"/>
      <point x="138" y="27"/>
      <point x="173" y="27" type="qcurve"/>
      <point x="212" y="27"/>
      <point x="283" y="58"/>
      <point x="337" y="110"/>
      <point x="370" y="179"/>
      <point x="370" y="217" type="qcurve"/>
      <point x="370" y="249"/>
      <point x="347" y="305"/>
      <point x="305" y="346"/>
      <point x="248" y="370"/>
      <point x="215" y="370" type="qcurve"/>
      <point x="182" y="370"/>
      <point x="121" y="350"/>
      <point x="99" y="331" type="qcurve"/>
      <point x="139" y="653" type="line"/>
      <point x="427" y="653" type="line"/>
      <point x="423" y="617" type="line"/>
      <point x="416" y="557" type="line"/>
    </contour>
  </outline>
</glyph>
<glyph name="six" format="1">
  <advance width="535"/>
  <unicode hex="0036"/>
  <outline>
    <contour>
      <point x="86" y="181" type="qcurve"/>
      <point x="86" y="149"/>
      <point x="109" y="93"/>
      <point x="150" y="51"/>
      <point x="206" y="27"/>
      <point x="239" y="27" type="qcurve"/>
      <point x="277" y="27"/>
      <point x="348" y="57"/>
      <point x="402" y="109"/>
      <point x="435" y="177"/>
      <point x="435" y="216" type="qcurve"/>
      <point x="435" y="248"/>
      <point x="412" y="304"/>
      <point x="370" y="346"/>
      <point x="314" y="370"/>
      <point x="281" y="370" type="qcurve"/>
      <point x="242" y="370"/>
      <point x="172" y="340"/>
      <point x="118" y="289"/>
      <point x="86" y="220"/>
    </contour>
    <contour>
      <point x="49" y="177" type="qcurve"/>
      <point x="49" y="255"/>
      <point x="125" y="388"/>
      <point x="240" y="501"/>
      <point x="376" y="596"/>
      <point x="436" y="637" type="qcurve"/>
      <point x="441" y="629"/>
      <point x="451" y="615"/>
      <point x="455" y="607" type="qcurve"/>
      <point x="395" y="570"/>
      <point x="294" y="495"/>
      <point x="216" y="426"/>
      <point x="161" y="365"/>
      <point x="147" y="341" type="qcurve"/>
      <point x="173" y="370"/>
      <point x="244" y="406"/>
      <point x="285" y="406" type="qcurve"/>
      <point x="325" y="406"/>
      <point x="393" y="377"/>
      <point x="443" y="326"/>
      <point x="471" y="258"/>
      <point x="471" y="219" type="qcurve"/>
      <point x="471" y="173"/>
      <point x="432" y="90"/>
      <point x="366" y="28"/>
      <point x="281" y="-8"/>
      <point x="235" y="-8" type="qcurve"/>
      <point x="197" y="-8"/>
      <point x="129" y="19"/>
      <point x="78" y="68"/>
      <point x="49" y="136"/>
    </contour>
  </outline>
</glyph>
<glyph name="colon" format="1">
  <advance width="196"/>
  <unicode hex="003A"/>
  <outline>
    <contour>
      <point x="70" y="284" type="qcurve"/>
      <point x="70" y="298"/>
      <point x="91" y="318"/>
      <point x="105" y="318" type="qcurve"/>
      <point x="116" y="318"/>
      <point x="131" y="302"/>
      <point x="131" y="290" type="qcurve"/>
      <point x="131" y="276"/>
      <point x="110" y="257"/>
      <point x="97" y="257" type="qcurve"/>
      <point x="86" y="257"/>
      <point x="70" y="272"/>
    </contour>
    <contour>
      <point x="38" y="27" type="qcurve"/>
      <point x="38" y="41"/>
      <point x="60" y="61"/>
      <point x="73" y="61" type="qcurve"/>
      <point x="84" y="61"/>
      <point x="100" y="45"/>
      <point x="100" y="33" type="qcurve"/>
      <point x="100" y="19"/>
      <point x="78" y="0"/>
      <point x="65" y="0" type="qcurve"/>
      <point x="54" y="0"/>
      <point x="38" y="15"/>
    </contour>
  </outline>
</glyph>
<glyph name="less" format="1">
  <advance width="560"/>
  <unicode hex="003C"/>
  <outline>
    <contour>
      <point x="447" y="32" type="qcurve"/>
      <point x="441" y="-15" type="line"/>
      <point x="338" y="49"/>
      <point x="136" y="176"/>
      <point x="33" y="239" type="qcurve"/>
      <point x="151" y="302"/>
      <point x="385" y="429"/>
      <point x="503" y="493" type="qcurve"/>
      <point x="498" y="446" type="line"/>
      <point x="114" y="239" type="line"/>
      <point x="197" y="187"/>
      <point x="364" y="84"/>
    </contour>
  </outline>
</glyph>
<glyph name="greater" format="1">
  <advance width="560"/>
  <unicode hex="003E"/>
  <outline>
    <contour>
      <point x="50" y="-15" type="line"/>
      <point x="56" y="32" type="line"/>
      <point x="440" y="239" type="line"/>
      <point x="106" y="446" type="line"/>
      <point x="112" y="493" type="line"/>
      <point x="215" y="429"/>
      <point x="417" y="302"/>
      <point x="520" y="239" type="qcurve"/>
    </contour>
  </outline>
</glyph>
<glyph name="J" format="1">
  <advance width="313"/>
  <unicode hex="004A"/>
  <outline>
    <contour>
      <point x="254" y="707" type="line"/>
      <point x="250" y="670" type="line"/>
      <point x="249" y="670" type="line"/>
      <point x="180" y="103" type="line"/>
      <point x="173" y="44"/>
      <point x="129" y="-47"/>
      <point x="65" y="-109"/>
      <point x="-16" y="-143"/>
      <point x="-59" y="-144" type="qcurve"/>
      <point x="-54" y="-105" type="line"/>
      <point x="-18" y="-103"/>
      <point x="48" y="-74"/>
      <point x="99" y="-20"/>
      <point x="133" y="56"/>
      <point x="139" y="106" type="qcurve"/>
      <point x="209" y="670" type="line"/>
      <point x="108" y="670" type="line"/>
      <point x="112" y="707" type="line"/>
    </contour>
  </outline>
</glyph>
<glyph name="K" format="1">
  <advance width="682"/>
  <unicode hex="004B"/>
  <outline>
    <contour>
      <point x="235" y="37" type="line"/>
      <point x="230" y="0" type="line"/>
      <point x="29" y="0" type="line"/>
      <point x="34" y="37" type="line"/>
      <point x="111" y="37" type="line"/>
      <point x="189" y="670" type="line"/>
      <point x="111" y="670" type="line"/>
      <point x="116" y="707" type="line"/>
      <point x="317" y="707" type="line"/>
      <point x="312" y="670" type="line"/>
      <point x="233" y="670" type="line"/>
      <point x="198" y="383" type="line"/>
      <point x="197" y="375"/>
      <point x="194" y="360"/>
      <point x="193" y="352" type="qcurve"/>
      <point x="213" y="374" type="line"/>
      <point x="249" y="404"/>
      <point x="332" y="479"/>
      <point x="420" y="557"/>
      <point x="507" y="635"/>
      <point x="546" y="670" type="qcurve"/>
      <point x="497" y="670" type="line"/>
      <point x="501" y="707" type="line"/>
      <point x="691" y="707" type="line"/>
      <point x="687" y="670" type="line"/>
      <point x="600" y="670" type="line"/>
      <point x="567" y="641"/>
      <point x="492" y="572"/>
      <point x="417" y="503"/>
      <point x="347" y="440"/>
      <point x="320" y="416" type="qcurve"/>
      <point x="345" y="378"/>
      <point x="409" y="282"/>
      <point x="476" y="180"/>
      <point x="543" y="80"/>
      <point x="572" y="37" type="qcurve"/>
      <point x="658" y="37" type="line"/>
      <point x="653" y="0" type="line"/>
      <point x="448" y="0" type="line"/>
      <point x="453" y="37" type="line"/>
      <point x="519" y="37" type="line"/>
      <point x="492" y="77"/>
      <point x="431" y="169"/>
      <point x="370" y="262"/>
      <point x="311" y="351"/>
      <point x="287" y="388" type="qcurve"/>
      <point x="264" y="368"/>
      <point x="211" y="324"/>
      <point x="188" y="304" type="qcurve"/>
      <point x="155" y="37" type="line"/>
    </contour>
  </outline>
</glyph>
<glyph name="T" format="1">
  <advance width="544"/>
  <unicode hex="0054"/>
  <outline>
    <contour>
      <point x="494" y="572" type="line"/>
      <point x="505" y="667" type="line"/>
      <point x="341" y="667" type="line"/>
      <point x="259" y="0" type="line"/>
      <point x="218" y="0" type="line"/>
      <point x="300" y="667" type="line"/>
      <point x="134" y="667" type="line"/>
      <point x="123" y="572" type="line"/>
      <point x="84" y="572" type="line"/>
      <point x="99" y="699" type="line"/>
      <point x="100" y="707" type="line"/>
      <point x="549" y="707" type="line"/>
      <point x="545" y="667" type="line"/>
      <point x="544" y="667" type="line"/>
      <point x="533" y="572" type="line"/>
    </contour>
  </outline>
</glyph>
<glyph name="bracketleft" format="1">
  <advance width="302"/>
  <unicode hex="005B"/>
  <outline>
    <contour>
      <point x="47" y="-150" type="line"/>
      <point x="158" y="749" type="line"/>
      <point x="331" y="749" type="line"/>
      <point x="326" y="713" type="line"/>
      <point x="191" y="713" type="line"/>
      <point x="89" y="-114" type="line"/>
      <point x="225" y="-114" type="line"/>
      <point x="220" y="-150" type="line"/>
    </contour>
  </outline>
</glyph>
<glyph name="w" format="1">
  <advance width="696"/>
  <unicode hex="0077"/>
  <outline>
    <contour>
      <point x="571" y="388" type="line"/>
      <point x="705" y="388" type="line"/>
      <point x="701" y="356" type="line"/>
      <point x="647" y="356" type="line"/>
      <point x="431" y="-23" type="line"/>
      <point x="408" y="47"/>
      <point x="366" y="185"/>
      <point x="342" y="256" type="qcurve"/>
      <point x="193" y="-23" type="line"/>
      <point x="162" y="73"/>
      <point x="101" y="260"/>
      <point x="72" y="357" type="qcurve"/>
      <point x="15" y="357" type="line"/>
      <point x="19" y="388" type="line"/>
      <point x="169" y="388" type="line"/>
      <point x="165" y="357" type="line"/>
      <point x="108" y="357" type="line"/>
      <point x="136" y="267"/>
      <point x="180" y="119"/>
      <point x="202" y="45" type="qcurve"/>
      <point x="229" y="97"/>
      <point x="290" y="213"/>
      <point x="331" y="290" type="qcurve"/>
      <point x="299" y="388" type="line"/>
      <point x="331" y="388" type="line"/>
      <point x="347" y="338"/>
      <point x="377" y="231"/>
      <point x="404" y="143"/>
      <point x="428" y="85"/>
      <point x="439" y="84" type="qcurve"/>
      <point x="458" y="88"/>
      <point x="498" y="139"/>
      <point x="542" y="215"/>
      <point x="588" y="309"/>
      <point x="613" y="356" type="qcurve"/>
      <point x="567" y="356" type="line"/>
    </contour>
  </outline>
</glyph>
<glyph name="x" format="1">
  <advance width="437"/>
  <unicode hex="0078"/>
  <outline>
    <contour>
      <point x="38" y="387" type="line"/>
      <point x="190" y="387" type="line"/>
      <point x="186" y="356" type="line"/>
      <point x="128" y="356" type="line"/>
      <point x="148" y="323"/>
      <point x="191" y="251"/>
      <point x="208" y="223" type="qcurve"/>
      <point x="223" y="240"/>
      <point x="258" y="282"/>
      <point x="295" y="325"/>
      <point x="330" y="367"/>
      <point x="345" y="385" type="qcurve"/>
      <point x="345" y="387" type="line"/>
      <point x="425" y="387" type="line"/>
      <point x="421" y="356" type="line"/>
      <point x="358" y="356" type="line"/>
      <point x="223" y="195" type="line"/>
      <point x="232" y="180"/>
      <point x="257" y="139"/>
      <point x="284" y="95"/>
      <point x="311" y="50"/>
      <point x="323" y="31" type="qcurve"/>
      <point x="389" y="31" type="line"/>
      <point x="385" y="0" type="line"/>
      <point x="215" y="0" type="line"/>
      <point x="219" y="31" type="line"/>
      <point x="282" y="31" type="line"/>
      <point x="262" y="63"/>
      <point x="215" y="137"/>
      <point x="198" y="166" type="qcurve"/>
      <point x="183" y="148"/>
      <point x="148" y="105"/>
      <point x="110" y="60"/>
      <point x="75" y="17"/>
      <point x="60" y="0" type="qcurve"/>
      <point x="-13" y="0" type="line"/>
      <point x="-9" y="31" type="line"/>
      <point x="45" y="31" type="line"/>
      <point x="62" y="50"/>
      <point x="100" y="96"/>
      <point x="137" y="141"/>
      <point x="172" y="182"/>
      <point x="185" y="197" type="qcurve"/>
      <point x="87" y="356" type="line"/>
      <point x="34" y="356" type="line"/>
    </contour>
  </outline>
</glyph>
<glyph name="braceleft" format="1">
  <advance width="288"/>
  <unicode hex="007B"/>
  <outline>
    <contour>
      <point x="36" y="278" type="qcurve"/>
      <point x="41" y="321" type="line"/>
      <point x="66" y="322"/>
      <point x="100" y="349"/>
      <point x="123" y="389"/>
      <point x="135" y="436"/>
      <point x="138" y="456" type="qcurve"/>
      <point x="159" y="631" type="line"/>
      <point x="165" y="677"/>
      <point x="187" y="725"/>
      <point x="216" y="746"/>
      <point x="251" y="749"/>
      <point x="270" y="749" type="qcurve"/>
      <point x="316" y="749" type="line"/>
      <point x="311" y="713" type="line"/>
      <point x="258" y="713" type="line"/>
      <point x="227" y="713"/>
      <point x="199" y="665"/>
      <point x="192" y="604" type="qcurve"/>
      <point x="175" y="460" type="line"/>
      <point x="170" y="418"/>
      <point x="152" y="363"/>
      <point x="129" y="327"/>
      <point x="102" y="307"/>
      <point x="89" y="300" type="qcurve"/>
      <point x="100" y="293"/>
      <point x="121" y="272"/>
      <point x="136" y="236"/>
      <point x="141" y="181"/>
      <point x="136" y="140" type="qcurve"/>
      <point x="117" y="-4" type="line"/>
      <point x="109" y="-66"/>
      <point x="126" y="-113"/>
      <point x="157" y="-113" type="qcurve"/>
      <point x="210" y="-113" type="line"/>
      <point x="205" y="-149" type="line"/>
      <point x="160" y="-149" type="line"/>
      <point x="139" y="-149"/>
      <point x="104" y="-146"/>
      <point x="81" y="-120"/>
      <point x="74" y="-62"/>
      <point x="81" y="-6" type="qcurve"/>
      <point x="99" y="143" type="line"/>
      <point x="102" y="163"/>
      <point x="101" y="210"/>
      <point x="88" y="250"/>
      <point x="60" y="277"/>
    </contour>
  </outline>
</glyph>
<glyph name="sterling" format="1">
  <advance width="576"/>
  <unicode hex="00A3"/>
  <outline>
    <contour>
      <point x="126" y="35" type="qcurve"/>
      <point x="350" y="35" type="line"/>
      <point x="412" y="35"/>
      <point x="462" y="57"/>
      <point x="466" y="88" type="qcurve"/>
      <point x="472" y="141" type="line"/>
      <point x="510" y="141" type="line"/>
      <point x="502" y="86" type="line"/>
      <point x="500" y="69"/>
      <point x="491" y="38"/>
      <point x="466" y="14"/>
      <point x="416" y="0"/>
      <point x="373" y="0" type="qcurve"/>
      <point x="11" y="0" type="line"/>
      <point x="16" y="35" type="line"/>
      <point x="60" y="35" type="line"/>
      <point x="77" y="35"/>
      <point x="99" y="47"/>
      <point x="114" y="78"/>
      <point x="123" y="130"/>
      <point x="128" y="170" type="qcurve"/>
      <point x="144" y="300" type="line"/>
      <point x="79" y="300" type="line"/>
      <point x="83" y="336" type="line"/>
      <point x="149" y="336" type="line"/>
      <point x="170" y="512" type="line"/>
      <point x="174" y="547"/>
      <point x="206" y="601"/>
      <point x="257" y="637"/>
      <point x="324" y="655"/>
      <point x="363" y="655" type="qcurve"/>
      <point x="431" y="655"/>
      <point x="500" y="604"/>
      <point x="516" y="562" type="qcurve"/>
      <point x="509" y="557"/>
      <point x="494" y="550"/>
      <point x="487" y="546" type="qcurve"/>
      <point x="479" y="564"/>
      <point x="459" y="591"/>
      <point x="431" y="610"/>
      <point x="389" y="619"/>
      <point x="359" y="619" type="qcurve"/>
      <point x="320" y="619"/>
      <point x="264" y="602"/>
      <point x="228" y="572"/>
      <point x="209" y="531"/>
      <point x="206" y="508" type="qcurve"/>
      <point x="185" y="336" type="line"/>
      <point x="311" y="336" type="line"/>
      <point x="306" y="300" type="line"/>
      <point x="180" y="300" type="line"/>
      <point x="162" y="154" type="line"/>
      <point x="159" y="127" type="line"/>
      <point x="155" y="98"/>
      <point x="143" y="49"/>
    </contour>
  </outline>
</glyph>
<glyph name="degree" format="1">
  <advance width="290"/>
  <unicode hex="00B0"/>
  <outline>
    <contour>
      <point x="173" y="504" type="qcurve"/>
      <point x="199" y="504"/>
      <point x="239" y="541"/>
      <point x="239" y="568" type="qcurve"/>
      <point x="239" y="590"/>
      <point x="209" y="620"/>
      <point x="187" y="620" type="qcurve"/>
      <point x="161" y="620"/>
      <point x="121" y="583"/>
      <point x="121" y="556" type="qcurve"/>
      <point x="121" y="534"/>
      <point x="151" y="504"/>
    </contour>
    <contour>
      <point x="94" y="553" type="qcurve"/>
      <point x="94" y="572"/>
      <point x="109" y="606"/>
      <point x="136" y="632"/>
      <point x="171" y="646"/>
      <point x="191" y="646" type="qcurve"/>
      <point x="223" y="646"/>
      <point x="265" y="603"/>
      <point x="265" y="571" type="qcurve"/>
      <point x="265" y="551"/>
      <point x="249" y="518"/>
      <point x="223" y="492"/>
      <point x="189" y="478"/>
      <point x="170" y="478" type="qcurve"/>
      <point x="136" y="478"/>
      <point x="94" y="521"/>
    </contour>
  </outline>
</glyph>
<glyph name="threesuperior" format="1">
  <advance width="299"/>
  <unicode hex="00B3"/>
  <outline>
    <contour>
      <point x="118" y="654" type="line"/>
      <point x="122" y="684" type="line"/>
      <point x="125" y="702" type="line"/>
      <point x="286" y="702" type="line"/>
      <point x="180" y="579" type="line"/>
      <point x="218" y="577"/>
      <point x="267" y="527"/>
      <point x="267" y="489" type="qcurve"/>
      <point x="267" y="466"/>
      <point x="248" y="425"/>
      <point x="215" y="394"/>
      <point x="173" y="376"/>
      <point x="151" y="376" type="qcurve"/>
      <point x="128" y="376"/>
      <point x="92" y="394"/>
      <point x="79" y="410" type="qcurve"/>
      <point x="83" y="413"/>
      <point x="90" y="419"/>
      <point x="94" y="423" type="qcurve"/>
      <point x="103" y="410"/>
      <point x="133" y="393"/>
      <point x="152" y="393" type="qcurve"/>
      <point x="171" y="393"/>
      <point x="206" y="408"/>
      <point x="233" y="434"/>
      <point x="249" y="468"/>
      <point x="249" y="487" type="qcurve"/>
      <point x="249" y="519"/>
      <point x="205" y="563"/>
      <point x="173" y="563" type="qcurve"/>
      <point x="156" y="563"/>
      <point x="141" y="553" type="qcurve"/>
      <point x="168" y="586"/>
      <point x="224" y="651"/>
      <point x="252" y="684" type="qcurve"/>
      <point x="139" y="684" type="line"/>
      <point x="136" y="654" type="line"/>
    </contour>
  </outline>
</glyph>
<glyph name="paragraph" format="1">
  <advance width="524"/>
  <unicode hex="00B6"/>
  <outline>
    <contour>
      <point x="207" y="0" type="line"/>
      <point x="171" y="0" type="line"/>
      <point x="223" y="425" type="line"/>
      <point x="191" y="425"/>
      <point x="138" y="448"/>
      <point x="100" y="487"/>
      <point x="78" y="540"/>
      <point x="78" y="571" type="qcurve"/>
      <point x="78" y="608"/>
      <point x="108" y="675"/>
      <point x="159" y="724"/>
      <point x="226" y="753"/>
      <point x="263" y="753" type="qcurve"/>
      <point x="463" y="753" type="line"/>
      <point x="371" y="0" type="line"/>
      <point x="335" y="0" type="line"/>
      <point x="423" y="718" type="line"/>
      <point x="296" y="718" type="line"/>
    </contour>
  </outline>
</glyph>
<glyph name="periodcentered" format="1">
  <advance width="197"/>
  <unicode hex="00B7"/>
  <outline>
    <contour>
      <point x="68" y="278" type="qcurve"/>
      <point x="68" y="292"/>
      <point x="89" y="312"/>
      <point x="103" y="312" type="qcurve"/>
      <point x="114" y="312"/>
      <point x="129" y="296"/>
      <point x="129" y="284" type="qcurve"/>
      <point x="129" y="270"/>
      <point x="108" y="251"/>
      <point x="95" y="251" type="qcurve"/>
      <point x="84" y="251"/>
      <point x="68" y="266"/>
    </contour>
  </outline>
</glyph>
<glyph name="AE" format="1">
  <advance width="703"/>
  <unicode hex="00C6"/>
  <outline>
    <contour>
      <point x="639" y="596" type="line"/>
      <point x="648" y="669" type="line"/>
      <point x="442" y="669" type="line"/>
      <point x="406" y="375" type="line"/>
      <point x="612" y="375" type="line"/>
      <point x="607" y="337" type="line"/>
      <point x="401" y="337" type="line"/>
      <point x="365" y="39" type="line"/>
      <point x="585" y="39" type="line"/>
      <point x="594" y="114" type="line"/>
      <point x="633" y="114" type="line"/>
      <point x="624" y="39" type="line"/>
      <point x="621" y="16" type="line"/>
      <point x="619" y="0" type="line"/>
      <point x="318" y="0" type="line"/>
      <point x="353" y="287" type="line"/>
      <point x="222" y="287" type="line"/>
      <point x="91" y="37" type="line"/>
      <point x="175" y="37" type="line"/>
      <point x="170" y="0" type="line"/>
      <point x="-29" y="0" type="line"/>
      <point x="-24" y="37" type="line"/>
      <point x="51" y="37" type="line"/>
      <point x="405" y="707" type="line"/>
      <point x="692" y="707" type="line"/>
      <point x="690" y="690" type="line"/>
      <point x="678" y="596" type="line"/>
    </contour>
    <contour>
      <point x="358" y="323" type="line"/>
      <point x="394" y="617" type="line"/>
      <point x="240" y="323" type="line"/>
    </contour>
  </outline>
</glyph>
<glyph name="Igrave" format="1">
  <advance width="321"/>
  <unicode hex="00CC"/>
  <outline>
    <contour>
      <point x="317" y="707" type="line"/>
      <point x="312" y="670" type="line"/>
      <point x="230" y="670" type="line"/>
      <point x="152" y="37" type="line"/>
      <point x="235" y="37" type="line"/>
      <point x="230" y="0" type="line"/>
      <point x="29" y="0" type="line"/>
      <point x="34" y="37" type="line"/>
      <point x="111" y="37" type="line"/>
      <point x="189" y="670" type="line"/>
      <point x="111" y="670" type="line"/>
      <point x="116" y="707" type="line"/>
    </contour>
    <contour>
      <point x="208" y="892" type="line"/>
      <point x="283" y="759" type="line"/>
      <point x="253" y="759" type="line"/>
      <point x="232" y="792"/>
      <point x="191" y="859"/>
      <point x="171" y="892" type="qcurve"/>
    </contour>
  </outline>
</glyph>
<glyph name="agrave" format="1">
  <advance width="540"/>
  <unicode hex="00E0"/>
  <outline>
    <contour>
      <point x="417" y="31" type="line"/>
      <point x="491" y="31" type="line"/>
      <point x="487" y="0" type="line"/>
      <point x="378" y="0" type="line"/>
      <point x="385" y="48" type="line"/>
      <point x="391" y="99" type="line"/>
      <point x="368" y="55"/>
      <point x="271" y="-7"/>
      <point x="208" y="-7" type="qcurve"/>
      <point x="169" y="-7"/>
      <point x="103" y="21"/>
      <point x="56" y="69"/>
      <point x="30" y="134"/>
      <point x="30" y="172" type="qcurve"/>
      <point x="30" y="218"/>
      <point x="67" y="299"/>
      <point x="130" y="360"/>
      <point x="212" y="396"/>
      <point x="257" y="396" type="qcurve"/>
      <point x="288" y="396"/>
      <point x="340" y="379"/>
      <point x="380" y="349"/>
      <point x="408" y="310"/>
      <point x="414" y="288" type="qcurve"/>
      <point x="417" y="313"/>
      <point x="425" y="363"/>
      <point x="430" y="387" type="qcurve"/>
      <point x="461" y="387" type="line"/>
    </contour>
    <contour>
      <point x="64" y="177" type="qcurve"/>
      <point x="64" y="145"/>
      <point x="86" y="91"/>
      <point x="125" y="50"/>
      <point x="180" y="27"/>
      <point x="212" y="27" type="qcurve"/>
      <point x="250" y="27"/>
      <point x="319" y="56"/>
      <point x="371" y="107"/>
      <point x="402" y="173"/>
      <point x="402" y="211" type="qcurve"/>
      <point x="402" y="243"/>
      <point x="380" y="298"/>
      <point x="340" y="339"/>
      <point x="286" y="362"/>
      <point x="253" y="362" type="qcurve"/>
      <point x="215" y="362"/>
      <point x="146" y="333"/>
      <point x="94" y="282"/>
      <point x="64" y="215"/>
    </contour>
    <contour>
      <point x="255" y="615" type="line"/>
      <point x="330" y="482" type="line"/>
      <point x="300" y="482" type="line"/>
      <point x="279" y="515"/>
      <point x="238" y="582"/>
      <point x="218" y="615" type="qcurve"/>
    </contour>
  </outline>
</glyph>
<glyph name="eacute" format="1">
  <advance width="441"/>
  <unicode hex="00E9"/>
  <outline>
    <contour>
      <point x="357" y="47" type="line"/>
      <point x="327" y="22"/>
      <point x="251" y="-7"/>
      <point x="210" y="-7" type="qcurve"/>
      <point x="170" y="-7"/>
      <point x="104" y="21"/>
      <point x="56" y="69"/>
      <point x="30" y="135"/>
      <point x="30" y="173" type="qcurve"/>
      <point x="30" y="219"/>
      <point x="68" y="300"/>
      <point x="131" y="361"/>
      <point x="213" y="397"/>
      <point x="258" y="397" type="qcurve"/>
      <point x="323" y="397"/>
      <point x="404" y="322"/>
      <point x="419" y="264" type="qcurve"/>
      <point x="381" y="250"/>
      <point x="293" y="216"/>
      <point x="201" y="180"/>
      <point x="110" y="145"/>
      <point x="70" y="130" type="qcurve"/>
      <point x="84" y="84"/>
      <point x="159" y="27"/>
      <point x="213" y="27" type="qcurve"/>
      <point x="246" y="27"/>
      <point x="310" y="51"/>
      <point x="334" y="72" type="qcurve"/>
    </contour>
    <contour>
      <point x="376" y="274" type="qcurve"/>
      <point x="362" y="314"/>
      <point x="300" y="362"/>
      <point x="254" y="362" type="qcurve"/>
      <point x="217" y="362"/>
      <point x="149" y="333"/>
      <point x="97" y="282"/>
      <point x="66" y="215"/>
      <point x="65" y="178" type="qcurve"/>
      <point x="65" y="172"/>
      <point x="65" y="159"/>
      <point x="67" y="154" type="qcurve"/>
      <point x="102" y="168"/>
      <point x="182" y="199"/>
      <point x="263" y="230"/>
      <point x="341" y="260"/>
    </contour>
    <contour>
      <point x="249" y="481" type="line"/>
      <point x="355" y="614" type="line"/>
      <point x="393" y="614" type="line"/>
      <point x="278" y="481" type="line"/>
    </contour>
  </outline>
</glyph>
<glyph name="icircumflex" format="1">
  <advance width="233"/>
  <unicode hex="00EE"/>
  <outline>
    <contour>
      <point x="151" y="387" type="line"/>
      <point x="147" y="356" type="line"/>
      <point x="109" y="40" type="line"/>
      <point x="108" y="31" type="line"/>
      <point x="184" y="31" type="line"/>
      <point x="180" y="0" type="line"/>
      <point x="-5" y="0" type="line"/>
      <point x="-1" y="31" type="line"/>
      <point x="73" y="31" type="line"/>
      <point x="113" y="356" type="line"/>
      <point x="39" y="356" type="line"/>
      <point x="43" y="387" type="line"/>
    </contour>
    <contour>
      <point x="160" y="609" type="qcurve"/>
      <point x="187" y="575"/>
      <point x="209" y="549" type="qcurve"/>
      <point x="228" y="526"/>
      <point x="262" y="486"/>
      <point x="265" y="481" type="qcurve"/>
      <point x="235" y="481" type="line"/>
      <point x="154" y="563" type="line"/>
      <point x="53" y="481" type="line"/>
      <point x="24" y="481" type="line"/>
      <point x="28" y="485"/>
      <point x="71" y="526"/>
      <point x="96" y="549" type="qcurve"/>
      <point x="125" y="576"/>
    </contour>
  </outline>
</glyph>
<glyph name="ntilde" format="1">
  <advance width="512"/>
  <unicode hex="00F1"/>
  <outline>
    <contour>
      <point x="397" y="58" type="line"/>
      <point x="394" y="31" type="line"/>
      <point x="468" y="31" type="line"/>
      <point x="464" y="0" type="line"/>
      <point x="280" y="0" type="line"/>
      <point x="284" y="31" type="line"/>
      <point x="359" y="31" type="line"/>
      <point x="361" y="42" type="line"/>
      <point x="362" y="57" type="line"/>
      <point x="363" y="57" type="line"/>
      <point x="389" y="274" type="line"/>
      <point x="392" y="309"/>
      <point x="351" y="359"/>
      <point x="308" y="361" type="qcurve"/>
      <point x="275" y="361"/>
      <point x="215" y="339"/>
      <point x="166" y="301"/>
      <point x="134" y="247"/>
      <point x="130" y="216" type="qcurve"/>
      <point x="109" y="41" type="line"/>
      <point x="108" y="31" type="line"/>
      <point x="184" y="31" type="line"/>
      <point x="180" y="0" type="line"/>
      <point x="-5" y="0" type="line"/>
      <point x="-1" y="31" type="line"/>
      <point x="73" y="31" type="line"/>
      <point x="113" y="356" type="line"/>
      <point x="39" y="356" type="line"/>
      <point x="43" y="387" type="line"/>
      <point x="145" y="387" type="line"/>
      <point x="145" y="383"/>
      <point x="142" y="353"/>
      <point x="139" y="319"/>
      <point x="136" y="290"/>
      <point x="136" y="287" type="qcurve"/>
      <point x="163" y="335"/>
      <point x="257" y="395"/>
      <point x="316" y="395" type="qcurve"/>
      <point x="372" y="395"/>
      <point x="429" y="331"/>
      <point x="424" y="280" type="qcurve"/>
    </contour>
    <contour>
      <point x="285" y="492" type="qcurve"/>
      <point x="271" y="509"/>
      <point x="249" y="521"/>
      <point x="235" y="521" type="qcurve"/>
      <point x="227" y="521"/>
      <point x="207" y="517"/>
      <point x="187" y="505"/>
      <point x="170" y="484"/>
      <point x="166" y="468" type="qcurve"/>
      <point x="143" y="471" type="line"/>
      <point x="146" y="490"/>
      <point x="166" y="518"/>
      <point x="192" y="536"/>
      <point x="223" y="545"/>
      <point x="237" y="545" type="qcurve"/>
      <point x="258" y="545"/>
      <point x="290" y="525"/>
      <point x="304" y="508" type="qcurve"/>
      <point x="318" y="491"/>
      <point x="341" y="479"/>
      <point x="355" y="479" type="qcurve"/>
      <point x="362" y="479"/>
      <point x="383" y="483"/>
      <point x="403" y="495"/>
      <point x="419" y="516"/>
      <point x="423" y="532" type="qcurve"/>
      <point x="446" y="529" type="line"/>
      <point x="438" y="491"/>
      <point x="381" y="456"/>
      <point x="352" y="456" type="qcurve"/>
      <point x="331" y="456"/>
      <point x="299" y="475"/>
    </contour>
  </outline>
</glyph>
<glyph name="ocircumflex" format="1">
  <advance width="487"/>
  <unicode hex="00F4"/>
  <outline>
    <contour>
      <point x="31" y="194" type="qcurve"/>
      <point x="36" y="236"/>
      <point x="77" y="310"/>
      <point x="138" y="365"/>
      <point x="216" y="397"/>
      <point x="259" y="397" type="qcurve"/>
      <point x="298" y="397"/>
      <point x="364" y="369"/>
      <point x="412" y="320"/>
      <point x="438" y="254"/>
      <point x="438" y="216" type="qcurve"/>
      <point x="438" y="169"/>
      <point x="401" y="88"/>
      <point x="338" y="28"/>
      <point x="254" y="-7"/>
      <point x="208" y="-7" type="qcurve"/>
      <point x="166" y="-7"/>
      <point x="96" y="23"/>
      <point x="48" y="77"/>
      <point x="26" y="151"/>
    </contour>
    <contour>
      <point x="66" y="194" type="qcurve"/>
      <point x="61" y="159"/>
      <point x="80" y="98"/>
      <point x="119" y="53"/>
      <point x="177" y="27"/>
      <point x="212" y="27" type="qcurve"/>
      <point x="250" y="27"/>
      <point x="319" y="56"/>
      <point x="371" y="106"/>
      <point x="402" y="173"/>
      <point x="402" y="211" type="qcurve"/>
      <point x="402" y="243"/>
      <point x="380" y="298"/>
      <point x="340" y="339"/>
      <point x="285" y="362"/>
      <point x="253" y="362" type="qcurve"/>
      <point x="218" y="362"/>
      <point x="154" y="336"/>
      <point x="103" y="290"/>
      <point x="70" y="229"/>
    </contour>
    <contour>
      <point x="287" y="609" type="qcurve"/>
      <point x="314" y="575"/>
      <point x="336" y="549" type="qcurve"/>
      <point x="355" y="526"/>
      <point x="389" y="486"/>
      <point x="392" y="481" type="qcurve"/>
      <point x="362" y="481" type="line"/>
      <point x="281" y="563" type="line"/>
      <point x="180" y="481" type="line"/>
      <point x="151" y="481" type="line"/>
      <point x="155" y="485"/>
      <point x="198" y="526"/>
      <point x="223" y="549" type="qcurve"/>
      <point x="252" y="576"/>
    </contour>
  </outline>
</glyph>
<glyph name="oslash" format="1">
  <advance width="487"/>
  <unicode hex="00F8"/>
  <outline>
    <contour>
      <point x="31" y="194" type="qcurve"/>
      <point x="36" y="236"/>
      <point x="77" y="310"/>
      <point x="138" y="365"/>
      <point x="216" y="397"/>
      <point x="259" y="397" type="qcurve"/>
      <point x="324" y="397"/>
      <point x="369" y="361" type="qcurve"/>
      <point x="402" y="395" type="line"/>
      <point x="419" y="378" type="line"/>
      <point x="387" y="345" type="line"/>
      <point x="411" y="320"/>
      <point x="438" y="254"/>
      <point x="438" y="216" type="qcurve"/>
      <point x="438" y="169"/>
      <point x="401" y="88"/>
      <point x="338" y="28"/>
      <point x="254" y="-7"/>
      <point x="208" y="-7" type="qcurve"/>
      <point x="171" y="-7"/>
      <point x="109" y="16"/>
      <point x="86" y="36" type="qcurve"/>
      <point x="45" y="-7" type="line"/>
      <point x="29" y="11" type="line"/>
      <point x="69" y="53" type="line"/>
      <point x="46" y="79"/>
      <point x="26" y="152"/>
    </contour>
    <contour>
      <point x="112" y="63" type="line"/>
      <point x="153" y="27"/>
      <point x="212" y="27" type="qcurve"/>
      <point x="250" y="27"/>
      <point x="319" y="56"/>
      <point x="371" y="106"/>
      <point x="402" y="173"/>
      <point x="402" y="211" type="qcurve"/>
      <point x="402" y="243"/>
      <point x="381" y="297"/>
      <point x="361" y="317" type="qcurve"/>
    </contour>
    <contour>
      <point x="66" y="194" type="qcurve"/>
      <point x="61" y="160"/>
      <point x="78" y="102"/>
      <point x="96" y="80" type="qcurve"/>
      <point x="342" y="333" type="line"/>
      <point x="324" y="347"/>
      <point x="279" y="362"/>
      <point x="253" y="362" type="qcurve"/>
      <point x="218" y="362"/>
      <point x="154" y="336"/>
      <point x="103" y="290"/>
      <point x="70" y="229"/>
    </contour>
  </outline>
</glyph>
<glyph name="Ccaron" format="1">
  <advance width="655"/>
  <unicode hex="010C"/>
  <outline>
    <contour>
      <point x="603" y="572" type="line"/>
      <point x="611" y="643" type="line"/>
      <point x="581" y="660"/>
      <point x="508" y="676"/>
      <point x="470" y="676" type="qcurve"/>
      <point x="398" y="676"/>
      <point x="265" y="619"/>
      <point x="165" y="521"/>
      <point x="105" y="390"/>
      <point x="105" y="317" type="qcurve"/>
      <point x="105" y="260"/>
      <point x="143" y="157"/>
      <point x="215" y="80"/>
      <point x="319" y="34"/>
      <point x="384" y="34" type="qcurve"/>
      <point x="439" y="34"/>
      <point x="535" y="63"/>
      <point x="567" y="82" type="qcurve"/>
      <point x="583" y="45" type="line"/>
      <point x="544" y="23"/>
      <point x="441" y="-8"/>
      <point x="380" y="-8" type="qcurve"/>
      <point x="306" y="-8"/>
      <point x="188" y="42"/>
      <point x="106" y="129"/>
      <point x="63" y="245"/>
      <point x="63" y="310" type="qcurve"/>
      <point x="63" y="395"/>
      <point x="131" y="542"/>
      <point x="244" y="652"/>
      <point x="392" y="715"/>
      <point x="472" y="715" type="qcurve"/>
      <point x="526" y="715"/>
      <point x="621" y="687"/>
      <point x="653" y="665" type="qcurve"/>
      <point x="642" y="572" type="line"/>
    </contour>
    <contour>
      <point x="468" y="751" type="qcurve"/>
      <point x="440" y="783"/>
      <point x="418" y="810" type="qcurve"/>
      <point x="399" y="833"/>
      <point x="366" y="874"/>
      <point x="363" y="879" type="qcurve"/>
      <point x="393" y="879" type="line"/>
      <point x="473" y="796" type="line"/>
      <point x="575" y="879" type="line"/>
      <point x="604" y="879" type="line"/>
      <point x="600" y="874"/>
      <point x="557" y="833"/>
      <point x="532" y="810" type="qcurve"/>
      <point x="503" y="783"/>
    </contour>
  </outline>
</glyph>
<glyph name="Dcaron" format="1">
  <advance width="741"/>
  <unicode hex="010E"/>
  <outline>
    <contour>
      <point x="347" y="707" type="line"/>
      <point x="444" y="707"/>
      <point x="577" y="650"/>
      <point x="659" y="560"/>
      <point x="696" y="447"/>
      <point x="696" y="390" type="qcurve"/>
      <point x="696" y="301"/>
      <point x="629" y="157"/>
      <point x="518" y="55"/>
      <point x="373" y="0"/>
      <point x="295" y="0" type="qcurve"/>
      <point x="29" y="0" type="line"/>
      <point x="34" y="37" type="line"/>
      <point x="110" y="37" type="line"/>
      <point x="188" y="670" type="line"/>
      <point x="111" y="670" type="line"/>
      <point x="116" y="707" type="line"/>
    </contour>
    <contour>
      <point x="299" y="40" type="line"/>
      <point x="369" y="40"/>
      <point x="499" y="89"/>
      <point x="597" y="179"/>
      <point x="656" y="307"/>
      <point x="656" y="387" type="qcurve"/>
      <point x="656" y="441"/>
      <point x="620" y="542"/>
      <point x="546" y="620"/>
      <point x="433" y="666"/>
      <point x="357" y="666" type="qcurve"/>
      <point x="229" y="666" type="line"/>
      <point x="210" y="509"/>
      <point x="171" y="198"/>
      <point x="152" y="40" type="qcurve"/>
    </contour>
    <contour>
      <point x="405" y="746" type="qcurve"/>
      <point x="377" y="778"/>
      <point x="355" y="805" type="qcurve"/>
      <point x="336" y="828"/>
      <point x="303" y="869"/>
      <point x="300" y="874" type="qcurve"/>
      <point x="330" y="874" type="line"/>
      <point x="410" y="791" type="line"/>
      <point x="512" y="874" type="line"/>
      <point x="541" y="874" type="line"/>
      <point x="537" y="869"/>
      <point x="494" y="828"/>
      <point x="469" y="805" type="qcurve"/>
      <point x="440" y="778"/>
    </contour>
  </outline>
</glyph>
<glyph name="dcaron" format="1">
  <advance width="541"/>
  <unicode hex="010F"/>
  <outline>
    <contour>
      <point x="418" y="31" type="line"/>
      <point x="492" y="31" type="line"/>
      <point x="488" y="0" type="line"/>
      <point x="379" y="0" type="line"/>
      <point x="386" y="47" type="line"/>
      <point x="393" y="100" type="line"/>
      <point x="367" y="55"/>
      <point x="269" y="-7"/>
      <point x="207" y="-7" type="qcurve"/>
      <point x="168" y="-7"/>
      <point x="103" y="21"/>
      <point x="56" y="69"/>
      <point x="31" y="134"/>
      <point x="31" y="172" type="qcurve"/>
      <point x="31" y="219"/>
      <point x="68" y="301"/>
      <point x="130" y="361"/>
      <point x="212" y="396"/>
      <point x="257" y="396" type="qcurve"/>
      <point x="320" y="396"/>
      <point x="401" y="333"/>
      <point x="415" y="288" type="qcurve"/>
      <point x="468" y="727" type="line"/>
      <point x="397" y="727" type="line"/>
      <point x="401" y="758" type="line"/>
      <point x="507" y="758" type="line"/>
    </contour>
    <contour>
      <point x="66" y="177" type="qcurve"/>
      <point x="66" y="145"/>
      <point x="88" y="91"/>
      <point x="127" y="50"/>
      <point x="182" y="27"/>
      <point x="214" y="27" type="qcurve"/>
      <point x="252" y="27"/>
      <point x="321" y="56"/>
      <point x="373" y="107"/>
      <point x="404" y="173"/>
      <point x="404" y="211" type="qcurve"/>
      <point x="404" y="243"/>
      <point x="382" y="298"/>
      <point x="342" y="339"/>
      <point x="288" y="362"/>
      <point x="255" y="362" type="qcurve"/>
      <point x="217" y="362"/>
      <point x="148" y="333"/>
      <point x="96" y="282"/>
      <point x="66" y="215"/>
    </contour>
    <contour>
      <point x="560" y="572" type="qcurve"/>
      <point x="556" y="577"/>
      <point x="550" y="587"/>
      <point x="545" y="592" type="qcurve"/>
      <point x="569" y="612"/>
      <point x="595" y="672"/>
      <point x="592" y="707" type="qcurve"/>
      <point x="623" y="714" type="line"/>
      <point x="627" y="673"/>
      <point x="592" y="599"/>
    </contour>
  </outline>
</glyph>
<glyph name="Eogonek" format="1">
  <advance width="638"/>
  <unicode hex="0118"/>
  <outline>
    <contour>
      <point x="572" y="596" type="line"/>
      <point x="581" y="669" type="line"/>
      <point x="229" y="669" type="line"/>
      <point x="193" y="375" type="line"/>
      <point x="545" y="375" type="line"/>
      <point x="540" y="337" type="line"/>
      <point x="188" y="337" type="line"/>
      <point x="152" y="39" type="line"/>
      <point x="518" y="39" type="line"/>
      <point x="527" y="114" type="line"/>
      <point x="566" y="114" type="line"/>
      <point x="557" y="39" type="line"/>
      <point x="554" y="16" type="line"/>
      <point x="552" y="0" type="line"/>
      <point x="29" y="0" type="line"/>
      <point x="34" y="37" type="line"/>
      <point x="110" y="37" type="line"/>
      <point x="188" y="670" type="line"/>
      <point x="111" y="670" type="line"/>
      <point x="116" y="707" type="line"/>
      <point x="625" y="707" type="line"/>
      <point x="623" y="690" type="line"/>
      <point x="611" y="596" type="line"/>
    </contour>
    <contour>
      <point x="552" y="0" type="line"/>
      <point x="526" y="0" type="line"/>
      <point x="525" y="-6" type="line"/>
      <point x="520" y="-33"/>
      <point x="490" y="-53"/>
      <point x="476" y="-61" type="qcurve"/>
      <point x="449" y="-79"/>
      <point x="426" y="-124"/>
      <point x="426" y="-147" type="qcurve"/>
      <point x="426" y="-189"/>
      <point x="470" y="-233"/>
      <point x="505" y="-233" type="qcurve"/>
      <point x="534" y="-233"/>
      <point x="588" y="-201"/>
      <point x="603" y="-169" type="qcurve"/>
      <point x="589" y="-164"/>
      <point x="579" y="-158" type="qcurve"/>
      <point x="571" y="-178"/>
      <point x="535" y="-203"/>
      <point x="512" y="-203" type="qcurve"/>
      <point x="486" y="-203"/>
      <point x="455" y="-170"/>
      <point x="455" y="-144" type="qcurve"/>
      <point x="455" y="-115"/>
      <point x="482" y="-85"/>
      <point x="516" y="-63"/>
      <point x="546" y="-42"/>
      <point x="549" y="-22" type="qcurve"/>
    </contour>
  </outline>
</glyph>
<glyph name="Ecaron" format="1">
  <advance width="638"/>
  <unicode hex="011A"/>
  <outline>
    <contour>
      <point x="572" y="596" type="line"/>
      <point x="581" y="669" type="line"/>
      <point x="229" y="669" type="line"/>
      <point x="193" y="375" type="line"/>
      <point x="545" y="375" type="line"/>
      <point x="540" y="337" type="line"/>
      <point x="188" y="337" type="line"/>
      <point x="152" y="39" type="line"/>
      <point x="518" y="39" type="line"/>
      <point x="527" y="114" type="line"/>
      <point x="566" y="114" type="line"/>
      <point x="557" y="39" type="line"/>
      <point x="554" y="16" type="line"/>
      <point x="552" y="0" type="line"/>
      <point x="29" y="0" type="line"/>
      <point x="34" y="37" type="line"/>
      <point x="110" y="37" type="line"/>
      <point x="188" y="670" type="line"/>
      <point x="111" y="670" type="line"/>
      <point x="116" y="707" type="line"/>
      <point x="625" y="707" type="line"/>
      <point x="623" y="690" type="line"/>
      <point x="611" y="596" type="line"/>
    </contour>
    <contour>
      <point x="405" y="746" type="qcurve"/>
      <point x="377" y="778"/>
      <point x="355" y="805" type="qcurve"/>
      <point x="336" y="828"/>
      <point x="303" y="869"/>
      <point x="300" y="874" type="qcurve"/>
      <point x="330" y="874" type="line"/>
      <point x="410" y="791" type="line"/>
      <point x="512" y="874" type="line"/>
      <point x="541" y="874" type="line"/>
      <point x="537" y="869"/>
      <point x="494" y="828"/>
      <point x="469" y="805" type="qcurve"/>
      <point x="440" y="778"/>
    </contour>
  </outline>
</glyph>
<glyph name="dotlessi" format="1">
  <advance width="233"/>
  <unicode hex="0131"/>
  <outline>
    <contour>
      <point x="147" y="356" type="line"/>
      <point x="109" y="40" type="line"/>
      <point x="108" y="31" type="line"/>
      <point x="184" y="31" type="line"/>
      <point x="180" y="0" type="line"/>
      <point x="-5" y="0" type="line"/>
      <point x="-1" y="31" type="line"/>
      <point x="73" y="31" type="line"/>
      <point x="113" y="356" type="line"/>
      <point x="39" y="356" type="line"/>
      <point x="43" y="387" type="line"/>
      <point x="151" y="387" type="line"/>
    </contour>
  </outline>
</glyph>
<glyph name="uni0137" format="1">
  <advance width="446"/>
  <unicode hex="0137"/>
  <outline>
    <contour>
      <point x="278" y="395" type="line"/>
      <point x="425" y="395" type="line"/>
      <point x="422" y="370" type="line"/>
      <point x="374" y="370" type="line"/>
      <point x="218" y="237" type="line"/>
      <point x="249" y="185"/>
      <point x="311" y="82"/>
      <point x="343" y="31" type="qcurve"/>
      <point x="406" y="31" type="line"/>
      <point x="402" y="0" type="line"/>
      <point x="320" y="0" type="line"/>
      <point x="320" y="1" type="line"/>
      <point x="287" y="55"/>
      <point x="221" y="160"/>
      <point x="190" y="214" type="qcurve"/>
      <point x="112" y="148" type="line"/>
      <point x="98" y="31" type="line"/>
      <point x="174" y="31" type="line"/>
      <point x="170" y="0" type="line"/>
      <point x="-15" y="0" type="line"/>
      <point x="-11" y="31" type="line"/>
      <point x="63" y="31" type="line"/>
      <point x="148" y="727" type="line"/>
      <point x="74" y="727" type="line"/>
      <point x="78" y="758" type="line"/>
      <point x="187" y="758" type="line"/>
      <point x="117" y="192" type="line"/>
      <point x="329" y="370" type="line"/>
      <point x="275" y="370" type="line"/>
    </contour>
    <contour>
      <point x="239" y="-22" type="line"/>
      <point x="225" y="-48"/>
      <point x="207" y="-80"/>
      <point x="191" y="-109"/>
      <point x="173" y="-142"/>
      <point x="159" y="-168" type="qcurve"/>
      <point x="127" y="-168" type="line"/>
      <point x="140" y="-142"/>
      <point x="156" y="-109"/>
      <point x="170" y="-80"/>
      <point x="186" y="-48"/>
      <point x="199" y="-22" type="qcurve"/>
    </contour>
  </outline>
</glyph>
<glyph name="Lcaron" format="1">
  <advance width="600"/>
  <unicode hex="013D"/>
  <outline>
    <contour>
      <point x="317" y="707" type="line"/>
      <point x="312" y="670" type="line"/>
      <point x="229" y="670" type="line"/>
      <point x="152" y="40" type="line"/>
      <point x="513" y="40" type="line"/>
      <point x="522" y="114" type="line"/>
      <point x="561" y="114" type="line"/>
      <point x="549" y="16" type="line"/>
      <point x="541" y="16" type="line"/>
      <point x="539" y="0" type="line"/>
      <point x="29" y="0" type="line"/>
      <point x="34" y="37" type="line"/>
      <point x="110" y="37" type="line"/>
      <point x="188" y="670" type="line"/>
      <point x="111" y="670" type="line"/>
      <point x="116" y="707" type="line"/>
    </contour>
    <contour>
      <point x="335" y="572" type="qcurve"/>
      <point x="331" y="577"/>
      <point x="325" y="587"/>
      <point x="320" y="592" type="qcurve"/>
      <point x="344" y="612"/>
      <point x="370" y="672"/>
      <point x="367" y="707" type="qcurve"/>
      <point x="398" y="714" type="line"/>
      <point x="402" y="673"/>
      <point x="367" y="599"/>
    </contour>
  </outline>
</glyph>
<glyph name="lcaron" format="1">
  <advance width="225"/>
  <unicode hex="013E"/>
  <outline>
    <contour>
      <point x="102" y="52" type="line"/>
      <point x="100" y="38" type="line"/>
      <point x="100" y="31" type="line"/>
      <point x="176" y="31" type="line"/>
      <point x="172" y="0" type="line"/>
      <point x="-13" y="0" type="line"/>
      <point x="-9" y="31" type="line"/>
      <point x="65" y="31" type="line"/>
      <point x="150" y="727" type="line"/>
      <point x="76" y="727" type="line"/>
      <point x="80" y="758" type="line"/>
      <point x="189" y="758" type="line"/>
    </contour>
    <contour>
      <point x="242" y="572" type="qcurve"/>
      <point x="238" y="577"/>
      <point x="232" y="587"/>
      <point x="227" y="592" type="qcurve"/>
      <point x="251" y="612"/>
      <point x="277" y="672"/>
      <point x="274" y="707" type="qcurve"/>
      <point x="305" y="714" type="line"/>
      <point x="309" y="673"/>
      <point x="274" y="599"/>
    </contour>
  </outline>
</glyph>
<glyph name="ncaron" format="1">
  <advance width="512"/>
  <unicode hex="0148"/>
  <outline>
    <contour>
      <point x="397" y="58" type="line"/>
      <point x="394" y="31" type="line"/>
      <point x="468" y="31" type="line"/>
      <point x="464" y="0" type="line"/>
      <point x="280" y="0" type="line"/>
      <point x="284" y="31" type="line"/>
      <point x="359" y="31" type="line"/>
      <point x="361" y="42" type="line"/>
      <point x="362" y="57" type="line"/>
      <point x="363" y="57" type="line"/>
      <point x="389" y="274" type="line"/>
      <point x="392" y="309"/>
      <point x="351" y="359"/>
      <point x="308" y="361" type="qcurve"/>
      <point x="275" y="361"/>
      <point x="215" y="339"/>
      <point x="166" y="301"/>
      <point x="134" y="247"/>
      <point x="130" y="216" type="qcurve"/>
      <point x="109" y="41" type="line"/>
      <point x="108" y="31" type="line"/>
      <point x="184" y="31" type="line"/>
      <point x="180" y="0" type="line"/>
      <point x="-5" y="0" type="line"/>
      <point x="-1" y="31" type="line"/>
      <point x="73" y="31" type="line"/>
      <point x="113" y="356" type="line"/>
      <point x="39" y="356" type="line"/>
      <point x="43" y="387" type="line"/>
      <point x="145" y="387" type="line"/>
      <point x="145" y="383"/>
      <point x="142" y="353"/>
      <point x="139" y="319"/>
      <point x="136" y="290"/>
      <point x="136" y="287" type="qcurve"/>
      <point x="163" y="335"/>
      <point x="257" y="395"/>
      <point x="316" y="395" type="qcurve"/>
      <point x="372" y="395"/>
      <point x="429" y="331"/>
      <point x="424" y="280" type="qcurve"/>
    </contour>
    <contour>
      <point x="280" y="481" type="qcurve"/>
      <point x="252" y="513"/>
      <point x="230" y="540" type="qcurve"/>
      <point x="211" y="563"/>
      <point x="178" y="604"/>
      <point x="175" y="609" type="qcurve"/>
      <point x="205" y="609" type="line"/>
      <point x="285" y="526" type="line"/>
      <point x="387" y="609" type="line"/>
      <point x="416" y="609" type="line"/>
      <point x="412" y="604"/>
      <point x="369" y="563"/>
      <point x="344" y="540" type="qcurve"/>
      <point x="315" y="513"/>
    </contour>
  </outline>
</glyph>
<glyph name="uni0156" format="1">
  <advance width="633"/>
  <unicode hex="0156"/>
  <outline>
    <contour>
      <point x="610" y="37" type="line"/>
      <point x="605" y="0" type="line"/>
      <point x="503" y="0" type="line"/>
      <point x="499" y="6"/>
      <point x="479" y="47"/>
      <point x="451" y="105"/>
      <point x="419" y="172"/>
      <point x="388" y="237"/>
      <point x="362" y="292"/>
      <point x="354" y="308" type="qcurve"/>
      <point x="340" y="306"/>
      <point x="310" y="303"/>
      <point x="294" y="303" type="qcurve"/>
      <point x="185" y="303" type="line"/>
      <point x="152" y="37" type="line"/>
      <point x="234" y="37" type="line"/>
      <point x="229" y="0" type="line"/>
      <point x="28" y="0" type="line"/>
      <point x="33" y="37" type="line"/>
      <point x="111" y="37" type="line"/>
      <point x="188" y="670" type="line"/>
      <point x="110" y="670" type="line"/>
      <point x="115" y="707" type="line"/>
      <point x="350" y="707" type="line"/>
      <point x="384" y="707"/>
      <point x="453" y="687"/>
      <point x="509" y="645"/>
      <point x="544" y="579"/>
      <point x="544" y="533" type="qcurve"/>
      <point x="544" y="501"/>
      <point x="527" y="437"/>
      <point x="491" y="380"/>
      <point x="436" y="334"/>
      <point x="398" y="320" type="qcurve"/>
      <point x="534" y="37" type="line"/>
    </contour>
    <contour>
      <point x="190" y="343" type="line"/>
      <point x="300" y="343" type="line"/>
      <point x="358" y="343"/>
      <point x="436" y="383"/>
      <point x="483" y="441"/>
      <point x="503" y="505"/>
      <point x="503" y="529" type="qcurve"/>
      <point x="503" y="558"/>
      <point x="480" y="609"/>
      <point x="438" y="646"/>
      <point x="378" y="668"/>
      <point x="341" y="668" type="qcurve"/>
      <point x="230" y="668" type="line"/>
    </contour>
    <contour>
      <point x="338" y="-22" type="line"/>
      <point x="324" y="-48"/>
      <point x="306" y="-80"/>
      <point x="290" y="-109"/>
      <point x="272" y="-142"/>
      <point x="258" y="-168" type="qcurve"/>
      <point x="226" y="-168" type="line"/>
      <point x="239" y="-142"/>
      <point x="255" y="-109"/>
      <point x="269" y="-80"/>
      <point x="285" y="-48"/>
      <point x="298" y="-22" type="qcurve"/>
    </contour>
  </outline>
</glyph>
<glyph name="uni0163" format="1">
  <advance width="260"/>
  <unicode hex="0163"/>
  <outline>
    <contour>
      <point x="133" y="557" type="line"/>
      <point x="167" y="557" type="line"/>
      <point x="146" y="381" type="line"/>
      <point x="268" y="381" type="line"/>
      <point x="264" y="350" type="line"/>
      <point x="141" y="350" type="line"/>
      <point x="105" y="52" type="line"/>
      <point x="102" y="31" type="line"/>
      <point x="195" y="31" type="line"/>
      <point x="192" y="0" type="line"/>
      <point x="64" y="0" type="line"/>
      <point x="70" y="52" type="line"/>
      <point x="107" y="350" type="line"/>
      <point x="22" y="350" type="line"/>
      <point x="26" y="381" type="line"/>
      <point x="111" y="381" type="line"/>
    </contour>
    <contour>
      <point x="107" y="-22" type="line"/>
      <point x="93" y="-48"/>
      <point x="75" y="-80"/>
      <point x="59" y="-109"/>
      <point x="41" y="-142"/>
      <point x="27" y="-168" type="qcurve"/>
      <point x="-5" y="-168" type="line"/>
      <point x="8" y="-142"/>
      <point x="24" y="-109"/>
      <point x="38" y="-80"/>
      <point x="54" y="-48"/>
      <point x="67" y="-22" type="qcurve"/>
    </contour>
  </outline>
</glyph>
<glyph name="tcaron" format="1">
  <advance width="260"/>
  <unicode hex="0165"/>
  <outline>
    <contour>
      <point x="133" y="557" type="line"/>
      <point x="167" y="557" type="line"/>
      <point x="146" y="381" type="line"/>
      <point x="268" y="381" type="line"/>
      <point x="264" y="350" type="line"/>
      <point x="141" y="350" type="line"/>
      <point x="105" y="52" type="line"/>
      <point x="102" y="31" type="line"/>
      <point x="195" y="31" type="line"/>
      <point x="192" y="0" type="line"/>
      <point x="64" y="0" type="line"/>
      <point x="70" y="52" type="line"/>
      <point x="107" y="350" type="line"/>
      <point x="22" y="350" type="line"/>
      <point x="26" y="381" type="line"/>
      <point x="111" y="381" type="line"/>
    </contour>
    <contour>
      <point x="261" y="572" type="qcurve"/>
      <point x="257" y="577"/>
      <point x="251" y="587"/>
      <point x="246" y="592" type="qcurve"/>
      <point x="270" y="612"/>
      <point x="296" y="672"/>
      <point x="293" y="707" type="qcurve"/>
      <point x="324" y="714" type="line"/>
      <point x="328" y="673"/>
      <point x="293" y="599"/>
    </contour>
  </outline>
</glyph>
<glyph name="Utilde" format="1">
  <advance width="724"/>
  <unicode hex="0168"/>
  <outline>
    <contour>
      <point x="300" y="707" type="line"/>
      <point x="295" y="670" type="line"/>
      <point x="214" y="670" type="line"/>
      <point x="161" y="238" type="line"/>
      <point x="155" y="190"/>
      <point x="175" y="113"/>
      <point x="222" y="59"/>
      <point x="291" y="31"/>
      <point x="334" y="31" type="qcurve"/>
      <point x="376" y="31"/>
      <point x="452" y="59"/>
      <point x="512" y="113"/>
      <point x="552" y="190"/>
      <point x="558" y="238" type="qcurve"/>
      <point x="615" y="707" type="line"/>
      <point x="735" y="707" type="line"/>
      <point x="731" y="670" type="line"/>
      <point x="652" y="670" type="line"/>
      <point x="599" y="235" type="line"/>
      <point x="592" y="177"/>
      <point x="544" y="86"/>
      <point x="471" y="24"/>
      <point x="380" y="-8"/>
      <point x="329" y="-8" type="qcurve"/>
      <point x="278" y="-8"/>
      <point x="194" y="24"/>
      <point x="138" y="86"/>
      <point x="112" y="177"/>
      <point x="120" y="235" type="qcurve"/>
      <point x="172" y="670" type="line"/>
      <point x="94" y="670" type="line"/>
      <point x="99" y="707" type="line"/>
    </contour>
    <contour>
      <point x="424" y="789" type="qcurve"/>
      <point x="410" y="806"/>
      <point x="388" y="818"/>
      <point x="374" y="818" type="qcurve"/>
      <point x="366" y="818"/>
      <point x="346" y="814"/>
      <point x="326" y="802"/>
      <point x="309" y="781"/>
      <point x="305" y="765" type="qcurve"/>
      <point x="282" y="768" type="line"/>
      <point x="285" y="787"/>
      <point x="305" y="815"/>
      <point x="331" y="833"/>
      <point x="362" y="842"/>
      <point x="376" y="842" type="qcurve"/>
      <point x="397" y="842"/>
      <point x="429" y="822"/>
      <point x="443" y="805" type="qcurve"/>
      <point x="457" y="788"/>
      <point x="480" y="776"/>
      <point x="494" y="776" type="qcurve"/>
      <point x="501" y="776"/>
      <point x="522" y="780"/>
      <point x="542" y="792"/>
      <point x="558" y="813"/>
      <point x="562" y="829" type="qcurve"/>
      <point x="585" y="826" type="line"/>
      <point x="577" y="788"/>
      <point x="520" y="753"/>
      <point x="491" y="753" type="qcurve"/>
      <point x="470" y="753"/>
      <point x="438" y="772"/>
    </contour>
  </outline>
</glyph>
<glyph name="ubreve" format="1">
  <advance width="505"/>
  <unicode hex="016D"/>
  <outline>
    <contour>
      <point x="384" y="336" type="line"/>
      <point x="387" y="356" type="line"/>
      <point x="310" y="356" type="line"/>
      <point x="314" y="387" type="line"/>
      <point x="425" y="387" type="line"/>
      <point x="419" y="335" type="line"/>
      <point x="418" y="335" type="line"/>
      <point x="382" y="31" type="line"/>
      <point x="455" y="31" type="line"/>
      <point x="452" y="0" type="line"/>
      <point x="350" y="0" type="line"/>
      <point x="359" y="101" type="line"/>
      <point x="332" y="52"/>
      <point x="237" y="-8"/>
      <point x="179" y="-8" type="qcurve"/>
      <point x="123" y="-8"/>
      <point x="65" y="57"/>
      <point x="70" y="108" type="qcurve"/>
      <point x="101" y="356" type="line"/>
      <point x="27" y="356" type="line"/>
      <point x="31" y="387" type="line"/>
      <point x="139" y="387" type="line"/>
      <point x="132" y="330" type="line"/>
      <point x="105" y="114" type="line"/>
      <point x="103" y="79"/>
      <point x="144" y="29"/>
      <point x="187" y="26" type="qcurve"/>
      <point x="220" y="26"/>
      <point x="280" y="48"/>
      <point x="329" y="86"/>
      <point x="361" y="139"/>
      <point x="365" y="171" type="qcurve"/>
      <point x="385" y="336" type="line"/>
    </contour>
    <contour>
      <point x="276" y="500" type="qcurve"/>
      <point x="243" y="500"/>
      <point x="187" y="524"/>
      <point x="148" y="566"/>
      <point x="129" y="624"/>
      <point x="132" y="657" type="qcurve"/>
      <point x="157" y="657" type="line"/>
      <point x="154" y="630"/>
      <point x="170" y="582"/>
      <point x="202" y="545"/>
      <point x="249" y="524"/>
      <point x="278" y="524" type="qcurve"/>
      <point x="308" y="524"/>
      <point x="360" y="545"/>
      <point x="401" y="582"/>
      <point x="427" y="630"/>
      <point x="431" y="657" type="qcurve"/>
      <point x="456" y="657" type="line"/>
      <point x="452" y="624"/>
      <point x="419" y="566"/>
      <point x="370" y="524"/>
      <point x="309" y="500"/>
    </contour>
  </outline>
</glyph>
<glyph name="uring" format="1">
  <advance width="505"/>
  <unicode hex="016F"/>
  <outline>
    <contour>
      <point x="384" y="336" type="line"/>
      <point x="387" y="356" type="line"/>
      <point x="310" y="356" type="line"/>
      <point x="314" y="387" type="line"/>
      <point x="425" y="387" type="line"/>
      <point x="419" y="335" type="line"/>
      <point x="418" y="335" type="line"/>
      <point x="382" y="31" type="line"/>
      <point x="455" y="31" type="line"/>
      <point x="452" y="0" type="line"/>
      <point x="350" y="0" type="line"/>
      <point x="359" y="101" type="line"/>
      <point x="332" y="52"/>
      <point x="237" y="-8"/>
      <point x="179" y="-8" type="qcurve"/>
      <point x="123" y="-8"/>
      <point x="65" y="57"/>
      <point x="70" y="108" type="qcurve"/>
      <point x="101" y="356" type="line"/>
      <point x="27" y="356" type="line"/>
      <point x="31" y="387" type="line"/>
      <point x="139" y="387" type="line"/>
      <point x="132" y="330" type="line"/>
      <point x="105" y="114" type="line"/>
      <point x="103" y="79"/>
      <point x="144" y="29"/>
      <point x="187" y="26" type="qcurve"/>
      <point x="220" y="26"/>
      <point x="280" y="48"/>
      <point x="329" y="86"/>
      <point x="361" y="139"/>
      <point x="365" y="171" type="qcurve"/>
      <point x="385" y="336" type="line"/>
    </contour>
    <contour>
      <point x="198" y="505" type="qcurve"/>
      <point x="198" y="537"/>
      <point x="244" y="582"/>
      <point x="276" y="582" type="qcurve"/>
      <point x="302" y="582"/>
      <point x="337" y="546"/>
      <point x="337" y="520" type="qcurve"/>
      <point x="337" y="488"/>
      <point x="291" y="443"/>
      <point x="259" y="443" type="qcurve"/>
      <point x="232" y="443"/>
      <point x="198" y="479"/>
    </contour>
    <contour>
      <point x="222" y="509" type="qcurve"/>
      <point x="222" y="492"/>
      <point x="245" y="468"/>
      <point x="262" y="468" type="qcurve"/>
      <point x="282" y="468"/>
      <point x="313" y="496"/>
      <point x="313" y="516" type="qcurve"/>
      <point x="313" y="533"/>
      <point x="290" y="558"/>
      <point x="273" y="558" type="qcurve"/>
      <point x="253" y="558"/>
      <point x="222" y="529"/>
    </contour>
  </outline>
</glyph>
<glyph name="zdotaccent" format="1">
  <advance width="393"/>
  <unicode hex="017C"/>
  <outline>
    <contour>
      <point x="335" y="99" type="line"/>
      <point x="324" y="9" type="line"/>
      <point x="323" y="0" type="line"/>
      <point x="-9" y="0" type="line"/>
      <point x="289" y="356" type="line"/>
      <point x="109" y="356" type="line"/>
      <point x="77" y="356"/>
      <point x="48" y="379"/>
      <point x="50" y="409" type="qcurve"/>
      <point x="51" y="424" type="line"/>
      <point x="83" y="424" type="line"/>
      <point x="81" y="411" type="line"/>
      <point x="79" y="387"/>
      <point x="112" y="387" type="qcurve"/>
      <point x="355" y="387" type="line"/>
      <point x="59" y="34" type="line"/>
      <point x="297" y="34" type="line"/>
      <point x="305" y="99" type="line"/>
    </contour>
    <contour>
      <point x="193" y="508" type="qcurve"/>
      <point x="193" y="522"/>
      <point x="215" y="542"/>
      <point x="228" y="542" type="qcurve"/>
      <point x="239" y="542"/>
      <point x="254" y="526"/>
      <point x="254" y="514" type="qcurve"/>
      <point x="254" y="500"/>
      <point x="233" y="481"/>
      <point x="220" y="481" type="qcurve"/>
      <point x="209" y="481"/>
      <point x="193" y="497"/>
    </contour>
  </outline>
</glyph>
<glyph name="florin" format="1">
  <advance width="318"/>
  <unicode hex="0192"/>
  <outline>
    <contour>
      <point x="155" y="351" type="line"/>
      <point x="120" y="69" type="line"/>
      <point x="113" y="11"/>
      <point x="72" y="-78"/>
      <point x="12" y="-138"/>
      <point x="-65" y="-170"/>
      <point x="-108" y="-171" type="qcurve"/>
      <point x="-104" y="-138" type="line"/>
      <point x="-68" y="-137"/>
      <point x="-5" y="-108"/>
      <point x="46" y="-56"/>
      <point x="80" y="20"/>
      <point x="86" y="67" type="qcurve"/>
      <point x="121" y="351" type="line"/>
      <point x="54" y="351" type="line"/>
      <point x="58" y="385" type="line"/>
      <point x="125" y="385" type="line"/>
      <point x="141" y="517" type="line"/>
      <point x="148" y="575"/>
      <point x="189" y="664"/>
      <point x="250" y="725"/>
      <point x="327" y="756"/>
      <point x="370" y="758" type="qcurve"/>
      <point x="366" y="724" type="line"/>
      <point x="331" y="724"/>
      <point x="267" y="695"/>
      <point x="216" y="642"/>
      <point x="182" y="567"/>
      <point x="176" y="520" type="qcurve"/>
      <point x="160" y="385" type="line"/>
      <point x="290" y="385" type="line"/>
      <point x="286" y="351" type="line"/>
    </contour>
  </outline>
</glyph>
<glyph name="caron" format="1">
  <advance width="450"/>
  <unicode hex="02C7"/>
  <outline>
    <contour>
      <point x="292" y="481" type="qcurve"/>
      <point x="264" y="513"/>
      <point x="242" y="540" type="qcurve"/>
      <point x="223" y="563"/>
      <point x="190" y="604"/>
      <point x="187" y="609" type="qcurve"/>
      <point x="217" y="609" type="line"/>
      <point x="297" y="526" type="line"/>
      <point x="399" y="609" type="line"/>
      <point x="428" y="609" type="line"/>
      <point x="424" y="604"/>
      <point x="381" y="563"/>
      <point x="356" y="540" type="qcurve"/>
      <point x="327" y="513"/>
    </contour>
  </outline>
</glyph>
<glyph name="ring" format="1">
  <advance width="451"/>
  <unicode hex="02DA"/>
  <outline>
    <contour>
      <point x="259" y="486" type="qcurve"/>
      <point x="259" y="469"/>
      <point x="283" y="445"/>
      <point x="300" y="445" type="qcurve"/>
      <point x="320" y="445"/>
      <point x="350" y="474"/>
      <point x="350" y="494" type="qcurve"/>
      <point x="350" y="511"/>
      <point x="328" y="535"/>
      <point x="311" y="535" type="qcurve"/>
      <point x="291" y="535"/>
      <point x="259" y="506"/>
    </contour>
    <contour>
      <point x="235" y="483" type="qcurve"/>
      <point x="235" y="515"/>
      <point x="281" y="560"/>
      <point x="313" y="560" type="qcurve"/>
      <point x="340" y="560"/>
      <point x="374" y="524"/>
      <point x="374" y="498" type="qcurve"/>
      <point x="374" y="466"/>
      <point x="328" y="421"/>
      <point x="296" y="421" type="qcurve"/>
      <point x="270" y="421"/>
      <point x="235" y="457"/>
    </contour>
  </outline>
</glyph>
<glyph name="tilde" format="1">
  <advance width="594"/>
  <unicode hex="02DC"/>
  <outline>
    <contour>
      <point x="368" y="492" type="qcurve"/>
      <point x="354" y="509"/>
      <point x="332" y="521"/>
      <point x="318" y="521" type="qcurve"/>
      <point x="310" y="521"/>
      <point x="290" y="517"/>
      <point x="270" y="505"/>
      <point x="253" y="484"/>
      <point x="249" y="468" type="qcurve"/>
      <point x="226" y="471" type="line"/>
      <point x="229" y="490"/>
      <point x="249" y="518"/>
      <point x="275" y="536"/>
      <point x="306" y="545"/>
      <point x="320" y="545" type="qcurve"/>
      <point x="341" y="545"/>
      <point x="373" y="525"/>
      <point x="387" y="508" type="qcurve"/>
      <point x="401" y="491"/>
      <point x="424" y="479"/>
      <point x="438" y="479" type="qcurve"/>
      <point x="445" y="479"/>
      <point x="466" y="483"/>
      <point x="486" y="495"/>
      <point x="502" y="516"/>
      <point x="506" y="532" type="qcurve"/>
      <point x="529" y="529" type="line"/>
      <point x="521" y="491"/>
      <point x="464" y="456"/>
      <point x="435" y="456" type="qcurve"/>
      <point x="414" y="456"/>
      <point x="382" y="475"/>
    </contour>
  </outline>
</glyph>
<glyph name="pi" format="1">
  <advance width="380"/>
  <unicode hex="03C0"/>
  <outline>
    <contour>
      <point x="129" y="294" type="line"/>
      <point x="92" y="0" type="line"/>
      <point x="56" y="0" type="line"/>
      <point x="93" y="294" type="line"/>
      <point x="40" y="294" type="line"/>
      <point x="45" y="330" type="line"/>
      <point x="342" y="330" type="line"/>
      <point x="337" y="294" type="line"/>
      <point x="294" y="294" type="line"/>
      <point x="258" y="0" type="line"/>
      <point x="222" y="0" type="line"/>
      <point x="258" y="294" type="line"/>
    </contour>
  </outline>
</glyph>
<glyph name="Etilde" format="1">
  <advance width="638"/>
  <unicode hex="1EBC"/>
  <outline>
    <contour>
      <point x="572" y="596" type="line"/>
      <point x="581" y="669" type="line"/>
      <point x="229" y="669" type="line"/>
      <point x="193" y="375" type="line"/>
      <point x="545" y="375" type="line"/>
      <point x="540" y="337" type="line"/>
      <point x="188" y="337" type="line"/>
      <point x="152" y="39" type="line"/>
      <point x="518" y="39" type="line"/>
      <point x="527" y="114" type="line"/>
      <point x="566" y="114" type="line"/>
      <point x="557" y="39" type="line"/>
      <point x="554" y="16" type="line"/>
      <point x="552" y="0" type="line"/>
      <point x="29" y="0" type="line"/>
      <point x="34" y="37" type="line"/>
      <point x="110" y="37" type="line"/>
      <point x="188" y="670" type="line"/>
      <point x="111" y="670" type="line"/>
      <point x="116" y="707" type="line"/>
      <point x="625" y="707" type="line"/>
      <point x="623" y="690" type="line"/>
      <point x="611" y="596" type="line"/>
    </contour>
    <contour>
      <point x="420" y="785" type="qcurve"/>
      <point x="406" y="802"/>
      <point x="384" y="814"/>
      <point x="370" y="814" type="qcurve"/>
      <point x="362" y="814"/>
      <point x="342" y="810"/>
      <point x="322" y="798"/>
      <point x="305" y="777"/>
      <point x="301" y="761" type="qcurve"/>
      <point x="278" y="764" type="line"/>
      <point x="281" y="783"/>
      <point x="301" y="811"/>
      <point x="327" y="829"/>
      <point x="358" y="838"/>
      <point x="372" y="838" type="qcurve"/>
      <point x="393" y="838"/>
      <point x="425" y="818"/>
      <point x="439" y="801" type="qcurve"/>
      <point x="453" y="784"/>
      <point x="476" y="772"/>
      <point x="490" y="772" type="qcurve"/>
      <point x="497" y="772"/>
      <point x="518" y="776"/>
      <point x="538" y="788"/>
      <point x="554" y="809"/>
      <point x="558" y="825" type="qcurve"/>
      <point x="581" y="822" type="line"/>
      <point x="573" y="784"/>
      <point x="516" y="749"/>
      <point x="487" y="749" type="qcurve"/>
      <point x="466" y="749"/>
      <point x="434" y="768"/>
    </contour>
  </outline>
</glyph>
<glyph name="bullet" format="1">
  <advance width="362"/>
  <unicode hex="2022"/>
  <outline>
    <contour>
      <point x="98" y="292" type="qcurve"/>
      <point x="98" y="311"/>
      <point x="114" y="346"/>
      <point x="141" y="372"/>
      <point x="176" y="387"/>
      <point x="195" y="387" type="qcurve"/>
      <point x="228" y="387"/>
      <point x="270" y="342"/>
      <point x="270" y="310" type="qcurve"/>
      <point x="270" y="290"/>
      <point x="254" y="256"/>
      <point x="228" y="231"/>
      <point x="193" y="216"/>
      <point x="174" y="216" type="qcurve"/>
      <point x="141" y="216"/>
      <point x="98" y="260"/>
    </contour>
  </outline>
</glyph>
<glyph name="ellipsis" format="1">
  <advance width="527"/>
  <unicode hex="2026"/>
  <outline>
    <contour>
      <point x="41" y="27" type="qcurve"/>
      <point x="41" y="41"/>
      <point x="62" y="61"/>
      <point x="76" y="61" type="qcurve"/>
      <point x="87" y="61"/>
      <point x="102" y="45"/>
      <point x="102" y="33" type="qcurve"/>
      <point x="102" y="19"/>
      <point x="81" y="0"/>
      <point x="68" y="0" type="qcurve"/>
      <point x="57" y="0"/>
      <point x="41" y="15"/>
    </contour>
    <contour>
      <point x="205" y="27" type="qcurve"/>
      <point x="205" y="41"/>
      <point x="226" y="61"/>
      <point x="240" y="61" type="qcurve"/>
      <point x="251" y="61"/>
      <point x="266" y="45"/>
      <point x="266" y="33" type="qcurve"/>
      <point x="266" y="19"/>
      <point x="245" y="0"/>
      <point x="232" y="0" type="qcurve"/>
      <point x="221" y="0"/>
      <point x="205" y="15"/>
    </contour>
    <contour>
      <point x="369" y="27" type="qcurve"/>
      <point x="369" y="41"/>
      <point x="390" y="61"/>
      <point x="403" y="61" type="qcurve"/>
      <point x="414" y="61"/>
      <point x="430" y="45"/>
      <point x="430" y="33" type="qcurve"/>
      <point x="430" y="19"/>
      <point x="408" y="0"/>
      <point x="396" y="0" type="qcurve"/>
      <point x="385" y="0"/>
      <point x="369" y="15"/>
    </contour>
  </outline>
</glyph>
<glyph name="Euro" format="1">
  <advance width="548"/>
  <unicode hex="20AC"/>
  <outline>
    <contour>
      <point x="61" y="397" type="line"/>
      <point x="128" y="397" type="line"/>
      <point x="142" y="448"/>
      <point x="194" y="543"/>
      <point x="270" y="616"/>
      <point x="368" y="661"/>
      <point x="428" y="661" type="qcurve"/>
      <point x="467" y="661"/>
      <point x="521" y="641"/>
      <point x="530" y="635" type="qcurve"/>
      <point x="510" y="605" type="line"/>
      <point x="472" y="625"/>
      <point x="423" y="625" type="qcurve"/>
      <point x="378" y="625"/>
      <point x="297" y="594"/>
      <point x="230" y="535"/>
      <point x="179" y="450"/>
      <point x="165" y="397" type="qcurve"/>
      <point x="400" y="397" type="line"/>
      <point x="397" y="373" type="line"/>
      <point x="159" y="373" type="line"/>
      <point x="157" y="361"/>
      <point x="154" y="337"/>
      <point x="152" y="324" type="qcurve"/>
      <point x="150" y="315"/>
      <point x="150" y="298"/>
      <point x="149" y="290" type="qcurve"/>
      <point x="387" y="290" type="line"/>
      <point x="384" y="266" type="line"/>
      <point x="149" y="266" type="line"/>
      <point x="151" y="209"/>
      <point x="184" y="121"/>
      <point x="238" y="60"/>
      <point x="308" y="28"/>
      <point x="346" y="28" type="qcurve"/>
      <point x="371" y="28"/>
      <point x="423" y="42"/>
      <point x="448" y="55" type="qcurve"/>
      <point x="465" y="26" type="line"/>
      <point x="406" y="-7"/>
      <point x="341" y="-7" type="qcurve"/>
      <point x="292" y="-7"/>
      <point x="209" y="34"/>
      <point x="148" y="106"/>
      <point x="113" y="206"/>
      <point x="112" y="266" type="qcurve"/>
      <point x="46" y="266" type="line"/>
      <point x="49" y="290" type="line"/>
      <point x="112" y="290" type="line"/>
      <point x="112" y="297"/>
      <point x="113" y="310"/>
      <point x="114" y="317" type="qcurve"/>
      <point x="115" y="331"/>
      <point x="119" y="359"/>
      <point x="122" y="373" type="qcurve"/>
      <point x="58" y="373" type="line"/>
    </contour>
  </outline>
</glyph>
<glyph name="summation" format="1">
  <advance width="458"/>
  <unicode hex="2211"/>
  <outline>
    <contour>
      <point x="81" y="-29" type="line"/>
      <point x="364" y="-29" type="line"/>
      <point x="378" y="-64" type="line"/>
      <point x="28" y="-64" type="line"/>
      <point x="192" y="344" type="line"/>
      <point x="128" y="753" type="line"/>
      <point x="478" y="753" type="line"/>
      <point x="455" y="718" type="line"/>
      <point x="172" y="718" type="line"/>
      <point x="230" y="344" type="line"/>
    </contour>
  </outline>
</glyph>
<glyph name="lessequal" format="1">
  <advance width="573"/>
  <unicode hex="2264"/>
  <outline>
    <contour>
      <point x="497" y="266" type="line"/>
      <point x="491" y="219" type="line"/>
      <point x="388" y="283"/>
      <point x="185" y="410"/>
      <point x="82" y="473" type="qcurve"/>
      <point x="201" y="536"/>
      <point x="435" y="663"/>
      <point x="553" y="727" type="qcurve"/>
      <point x="547" y="680" type="line"/>
      <point x="163" y="473" type="line"/>
    </contour>
    <contour>
      <point x="435" y="85" type="line"/>
      <point x="74" y="85" type="line"/>
      <point x="79" y="121" type="line"/>
      <point x="440" y="121" type="line"/>
    </contour>
  </outline>
</glyph>
